<?xml version="1.0" encoding="UTF-8" standalone="no"?>
<svg
   width="1440"
   height="1024"
   fill="none"
   version="1.1"
   id="svg5"
   sodipodi:docname="background.svg"
   inkscape:version="1.4 (86a8ad7, 2024-10-11)"
   xmlns:inkscape="http://www.inkscape.org/namespaces/inkscape"
   xmlns:sodipodi="http://sodipodi.sourceforge.net/DTD/sodipodi-0.dtd"
   xmlns="http://www.w3.org/2000/svg"
   xmlns:svg="http://www.w3.org/2000/svg">
  <sodipodi:namedview
     id="namedview5"
     pagecolor="#ffffff"
     bordercolor="#000000"
     borderopacity="0.25"
     inkscape:showpageshadow="2"
     inkscape:pageopacity="0.0"
     inkscape:pagecheckerboard="0"
     inkscape:deskcolor="#d1d1d1"
     inkscape:zoom="0.39404297"
     inkscape:cx="381.93804"
     inkscape:cy="435.23172"
     inkscape:window-width="1920"
     inkscape:window-height="1009"
     inkscape:window-x="-8"
     inkscape:window-y="-8"
     inkscape:window-maximized="1"
     inkscape:current-layer="svg5" />
  <path
     fill="url(#a)"
     fill-rule="evenodd"
     d="m 1500.0759,259.78192 c 10.0797,116.25916 -98.7381,204.87379 -149.1432,310.12174 -50.7125,105.88319 -39.0107,271.58918 -149.0625,312.50346 C 1081.9508,926.9806 970.81398,784.91252 845.80448,757.68294 763.98788,739.86788 682.34488,758.9792 598.98767,751.1109 475.22771,739.44906 331.86568,779.27984 235.96831,700.18852 141.84303,622.55341 71.229961,469.04501 123.03404,358.58345 183.90164,228.77985 435.29515,284.59078 492.52511,153.15148 553.9474,12.076207 310.48445,-172.02239 406.40812,-292.31597 c 80.54419,-100.99225 253.81816,33.33855 370.43926,88.91538 82.1157,39.11645 111.5332,151.536278 197.3809,181.611878 104.19702,36.50791 228.24582,-50.51843 325.57992,1.59706 102.9093,55.100459 190.2014,163.675462 200.276,279.979042 z"
     clip-rule="evenodd"
     style="opacity:0.154;fill:#00ff00;fill-opacity:1"
     id="path1"
     sodipodi:nodetypes="cccccccccccccc" />
  <path
     fill="url(#b)"
     fill-rule="evenodd"
     d="m 111.15243,501.17473 c 146.42,-19.45 275.33,-155.84 413.5,-103.59 188.09,71.13 409,212.64 407.06,413.88 -1.94,201.24997 -259.28,278.59997 -414.96,405.95997 -130,106.35 -240.24,294.39 -405.6,265.3 -163.700001,-28.8 -161.930001,-274.12 -284.34,-386.66 -134.95,-124.05997 -436,-101.45997 -445.82,-284.59997 -9.68,-180.38 247.41,-246.3 413.54,-316.9 101.01,-42.93 207.8299993,21.06 316.62,6.61 z"
     clip-rule="evenodd"
     style="opacity:0.52298851;fill:#000000;fill-opacity:1"
     id="path2" />
  <defs
     id="defs5">
    <linearGradient
       id="b"
       x1="373"
       x2="1995.44"
       y1="1100"
       y2="118.03"
       gradientUnits="userSpaceOnUse">
      <stop
         stop-color="#D83333"
         id="stop2"
         offset="0"
         style="stop-color:#221a12;stop-opacity:1;" />
      <stop
         offset="1"
         stop-color="#F041FF"
         id="stop3"
         style="stop-color:#e6e800;stop-opacity:1;" />
    </linearGradient>
    <linearGradient
       id="a"
       x1="107.37"
       x2="1130.66"
       y1="1993.35"
       y2="1026.31"
       gradientUnits="userSpaceOnUse">
      <stop
         stop-color="#3245FF"
         id="stop4" />
      <stop
         offset="1"
         stop-color="#BC52EE"
         id="stop5"
         style="stop-color:#36d600;stop-opacity:1;" />
    </linearGradient>
  </defs>
</svg>
